HIERARCHY
ROOT hip
{
	OFFSET 0.000000 0.000000 0.000000
	CHANNELS 6 Xposition Yposition Zposition Xrotation Zrotation Yrotation 
	JOINT abdomen
	{
		OFFSET 0.000000 3.422050 0.000000
		CHANNELS 3 Xrotation Zrotation Yrotation 
		JOINT chest
		{
			OFFSET 0.000000 8.486693 -0.684411
			CHANNELS 3 Xrotation Zrotation Yrotation 
			JOINT neck
			{
				OFFSET 0.000000 10.266162 -0.273764
				CHANNELS 3 Xrotation Zrotation Yrotation 
				JOINT head
				{
					OFFSET 0.000000 3.148285 0.000000
					CHANNELS 3 Xrotation Zrotation Yrotation 
					End Site
					{
						OFFSET 0.000000 3.148289 0.000000
					}
				}
			}
			JOINT lCollar
			{
				OFFSET 3.422053 6.707223 -0.821293
				CHANNELS 3 Yrotation Zrotation Xrotation 
				JOINT lShldr
				{
					OFFSET 3.285171 0.000000 0.000000
					CHANNELS 3 Zrotation Yrotation Xrotation 
					JOINT lForeArm
					{
						OFFSET 10.129278 0.000000 0.000000
						CHANNELS 3 Yrotation Zrotation Xrotation 
						JOINT lHand
						{
							OFFSET 8.486692 0.000000 0.000000
							CHANNELS 3 Zrotation Yrotation Xrotation 
							End Site
							{
								OFFSET 4.106464 0.000000 0.000000
							}
						}
					}
				}
			}
			JOINT rCollar
			{
				OFFSET -3.558935 6.707223 -0.821293
				CHANNELS 3 Yrotation Zrotation Xrotation 
				JOINT rShldr
				{
					OFFSET -3.148289 0.000000 0.000000
					CHANNELS 3 Zrotation Yrotation Xrotation 
					JOINT rForeArm
					{
						OFFSET -10.266159 0.000000 0.000000
						CHANNELS 3 Yrotation Zrotation Xrotation 
						JOINT rHand
						{
							OFFSET -8.349810 0.000000 0.000000
							CHANNELS 3 Zrotation Yrotation Xrotation 
							End Site
							{
								OFFSET -4.106464 0.000000 0.000000
							}
						}
					}
				}
			}
		}
	}
	JOINT lThigh
	{
		OFFSET 5.338403 -1.642589 1.368821
		CHANNELS 3 Xrotation Zrotation Yrotation 
		JOINT lShin
		{
			OFFSET -2.053232 -20.121670 0.000000
			CHANNELS 3 Xrotation Zrotation Yrotation 
			JOINT lFoot
			{
				OFFSET 0.000000 -19.300380 -1.231939
				CHANNELS 3 Xrotation Yrotation Zrotation 
				End Site
				{
					OFFSET 0.000000 -2.463878 4.653993
				}
			}
		}
	}
	JOINT rThigh
	{
		OFFSET -5.338403 -1.642589 1.368821
		CHANNELS 3 Xrotation Zrotation Yrotation 
		JOINT rShin
		{
			OFFSET 2.053232 -20.121670 0.000000
			CHANNELS 3 Xrotation Zrotation Yrotation 
			JOINT rFoot
			{
				OFFSET 0.000000 -19.300380 -1.231939
				CHANNELS 3 Xrotation Yrotation Zrotation 
				End Site
				{
					OFFSET 0.000000 -2.463878 4.653993
				}
			}
		}
	}
}
MOTION
Frames: 18
Frame Time: 0.050000
0.000000 43.528500 0.000000 0.000000 0.000000 0.000000 0.000000 0.000000 0.000000 0.000000 0.000000 0.000000 0.000000 0.000000 0.000000 0.000000 0.000000 0.000000 0.000000 0.000000 0.000000 0.000000 0.000000 0.000000 0.000000 0.000000 0.000000 0.000000 0.000000 0.000000 0.000000 0.000000 0.000000 0.000000 0.000000 0.000000 0.000000 0.000000 0.000000 0.000000 0.000000 0.000000 0.000000 0.000000 0.000000 0.000000 0.000000 0.000000 0.000000 0.000000 0.000000 0.000000 0.000000 0.000000 0.000000 0.000000 0.000000 0.000000 0.000000 0.000000 
-26.003363 21.994688 9.999445 1.001971 0.000000 -180.000000 11.773921 -0.215979 -0.547861 10.619413 0.175061 -0.617677 -22.000595 0.000000 0.000000 -14.000520 0.000000 0.000000 1.335258 20.947844 -26.651125 -84.774315 -63.398785 30.759253 -82.017929 -4.997574 -17.001280 -39.937584 -11.867569 0.532469 4.998123 -5.001569 -10.003361 58.180660 56.414989 7.884392 91.995239 4.999276 -19.999073 43.889996 17.071238 -19.090157 -13.567045 16.890957 6.179819 109.707664 4.624854 -2.253519 39.097050 1.305469 0.013334 -13.164438 -15.439001 -7.818535 109.842194 -4.628947 2.227734 38.588898 -3.368341 0.365902 
-26.003363 22.175375 9.861734 1.001895 0.000000 -180.000000 11.773921 -0.215979 -0.547861 10.619413 0.175061 -0.617677 -21.078955 0.000000 0.000000 -12.772936 0.000000 0.000000 1.335258 20.947844 -26.651127 -84.774315 -63.398785 30.759253 -82.017929 -4.997575 -17.001280 -39.937584 -11.867569 0.532469 4.998124 -5.001570 -10.003362 58.180660 56.414989 7.884392 91.995239 4.999275 -19.999073 43.889999 17.071239 -19.090158 -13.022528 16.853706 6.283138 108.917915 4.561416 -2.315389 39.097050 1.305469 0.013334 -12.634649 -15.364123 -7.864973 109.050835 -4.564569 2.289939 38.588898 -3.368341 0.365902 
-26.003363 22.356062 9.724024 1.001895 0.000000 -180.000000 11.773921 -0.215979 -0.547861 10.619413 0.175061 -0.617677 -20.156658 0.000000 0.000000 -11.543788 0.000000 0.000000 1.335258 20.947844 -26.651123 -84.774315 -63.398785 30.759253 -82.017929 -4.997574 -17.001280 -39.937584 -11.867569 0.532469 4.998123 -5.001568 -10.003360 58.180660 56.414989 7.884392 91.995239 4.999276 -19.999073 43.889996 17.071238 -19.090157 -12.478057 16.815504 6.386084 108.127884 4.497100 -2.376403 39.097050 1.305469 0.013334 -12.104988 -15.288816 -7.910684 108.259193 -4.499305 2.351271 38.588898 -3.368341 0.365902 
-26.003363 22.536747 9.586313 1.001895 0.000000 -180.000000 11.773921 -0.215979 -0.547861 10.619413 0.175061 -0.617677 -19.233826 0.000000 0.000000 -10.313366 0.000000 0.000000 1.335258 20.947844 -26.651125 -84.774315 -63.398785 30.759253 -82.017929 -4.997574 -17.001280 -39.937584 -11.867569 0.532469 4.998123 -5.001569 -10.003361 58.180660 56.414989 7.884392 91.995239 4.999276 -19.999073 43.889996 17.071238 -19.090157 -11.933673 16.776367 6.488648 107.337654 4.431923 -2.436541 39.097050 1.305469 0.013334 -11.575485 -15.213096 -7.955666 107.467369 -4.433175 2.411714 38.588898 -3.368341 0.365902 
-26.003363 22.717434 9.448603 1.001895 0.000000 -180.000000 11.773921 -0.215979 -0.547861 10.619413 0.175061 -0.617677 -18.310575 0.000000 0.000000 -9.081949 0.000000 0.000000 1.335258 20.947844 -26.651125 -84.774315 -63.398785 30.759253 -82.017929 -4.997574 -17.001280 -39.937588 -11.867570 0.532468 4.998123 -5.001569 -10.003362 58.180660 56.414989 7.884392 91.995239 4.999276 -19.999073 43.889996 17.071238 -19.090157 -11.389395 16.736290 6.590810 106.547295 4.365904 -2.495786 39.097050 1.305469 0.013334 -11.046154 -15.136963 -7.999912 106.675415 -4.366197 2.471250 38.588898 -3.368341 0.365902 
-26.003363 22.898121 9.310892 1.001895 0.000000 -180.000000 11.773920 -0.215979 -0.547861 10.619411 0.175061 -0.617677 -17.387020 0.000000 0.000000 -7.849819 0.000000 0.000000 1.335257 20.947842 -26.651125 -84.774307 -63.398781 30.759253 -82.017929 -4.997575 -17.001278 -39.937584 -11.867568 0.532468 4.998123 -5.001569 -10.003361 58.180660 56.414982 7.884395 91.995224 4.999275 -19.999071 43.889992 17.071238 -19.090157 -10.845247 16.695278 6.692560 105.756889 4.299060 -2.554122 39.097050 1.305469 0.013334 -10.517018 -15.060434 -8.043415 105.883400 -4.298386 2.529858 38.588898 -3.368341 0.365902 
-26.003363 23.078808 9.173182 1.001895 0.000000 -180.000000 11.773921 -0.215979 -0.547861 10.619413 0.175061 -0.617677 -16.463289 0.000000 0.000000 -6.617261 0.000000 0.000000 1.335258 20.947844 -26.651123 -84.774315 -63.398785 30.759253 -82.017929 -4.997574 -17.001280 -39.937584 -11.867569 0.532469 4.998123 -5.001569 -10.003361 58.180660 56.414982 7.884395 91.995239 4.999276 -19.999073 43.889996 17.071238 -19.090157 -10.301266 16.653345 6.793884 104.966507 4.231410 -2.611530 39.097050 1.305469 0.013334 -9.988103 -14.983514 -8.086174 105.091423 -4.229764 2.587525 38.588898 -3.368341 0.365902 
-26.003361 23.259493 9.035470 1.001895 0.000000 -180.000000 11.773921 -0.215979 -0.547861 10.619413 0.175061 -0.617677 -15.539495 0.000000 0.000000 -5.384562 0.000000 0.000000 1.335258 20.947844 -26.651125 -84.774315 -63.398785 30.759253 -82.017929 -4.997574 -17.001280 -39.937584 -11.867569 0.532469 4.998123 -5.001569 -10.003361 58.180660 56.414989 7.884392 91.995239 4.999276 -19.999073 43.889996 17.071238 -19.090157 -9.757469 16.610497 6.894767 104.176216 4.162974 -2.667994 39.097050 1.305469 0.013334 -9.459421 -14.906214 -8.128177 104.299538 -4.160352 2.644233 38.588898 -3.368341 0.365902 
-26.003361 23.440180 8.897759 1.001895 0.000000 -180.000000 11.773922 -0.215979 -0.547861 10.619413 0.175061 -0.617677 -14.615760 0.000000 0.000000 -4.152004 0.000000 0.000000 1.335258 20.947844 -26.651125 -84.774315 -63.398785 30.759253 -82.017929 -4.997575 -17.001280 -39.937588 -11.867570 0.532468 4.998123 -5.001569 -10.003361 58.180660 56.414989 7.884392 91.995239 4.999275 -19.999073 43.889999 17.071239 -19.090160 -9.213883 16.566719 6.995194 103.386124 4.093771 -2.723499 39.097050 1.305469 0.013334 -8.930999 -14.828541 -8.169427 103.507843 -4.090169 2.699967 38.588898 -3.368342 0.365902 
-26.003361 23.620867 8.760049 1.001895 0.000000 -180.000000 11.773923 -0.215979 -0.547861 10.619415 0.175061 -0.617677 -13.692205 0.000000 0.000000 -2.919873 0.000000 0.000000 1.335258 20.947844 -26.651127 -84.774315 -63.398785 30.759253 -82.017929 -4.997574 -17.001280 -39.937588 -11.867571 0.532468 4.998123 -5.001569 -10.003361 58.180660 56.414989 7.884392 91.995239 4.999276 -19.999073 43.890003 17.071239 -19.090158 -8.670541 16.522045 7.095158 102.596268 4.023822 -2.778030 39.097050 1.305469 0.013334 -8.402863 -14.750518 -8.209920 102.716393 -4.019234 2.754710 38.588898 -3.368342 0.365902 
-26.003361 23.801554 8.622338 1.001895 0.000000 -180.000000 11.773921 -0.215979 -0.547861 10.619413 0.175061 -0.617677 -12.768955 0.000000 0.000000 -1.688456 0.000000 0.000000 1.335258 20.947844 -26.651123 -84.774315 -63.398785 30.759253 -82.017929 -4.997574 -17.001280 -39.937588 -11.867570 0.532468 4.998123 -5.001569 -10.003361 58.180660 56.414982 7.884395 91.995239 4.999276 -19.999073 43.889996 17.071239 -19.090160 -8.127461 16.476460 7.194638 101.806732 3.953147 -2.831572 39.097050 1.305469 0.013334 -7.875024 -14.672136 -8.249645 101.925270 -3.947568 2.808448 38.588898 -3.368341 0.365902 
-26.003361 23.982239 8.484628 1.001895 0.000000 -180.000000 11.773922 -0.215979 -0.547861 10.619413 0.175061 -0.617677 -11.846122 0.000000 0.000000 -0.458034 0.000000 0.000000 1.335258 20.947844 -26.651125 -84.774315 -63.398785 30.759253 -82.017929 -4.997574 -17.001280 -39.937588 -11.867570 0.532468 4.998123 -5.001569 -10.003361 58.180660 56.414989 7.884392 91.995239 4.999276 -19.999073 43.889996 17.071239 -19.090160 -7.584677 16.429989 7.293628 101.017593 3.881766 -2.884111 39.097050 1.305469 0.013334 -7.347508 -14.593420 -8.288604 101.134537 -3.875194 2.861168 38.588898 -3.368341 0.365902 
-26.003361 24.162926 8.346917 1.001895 0.000000 -180.000000 11.773920 -0.215979 -0.547861 10.619412 0.175061 -0.617677 -10.923826 0.000000 0.000000 0.771110 0.000000 0.000000 1.335258 20.947842 -26.651121 -84.774315 -63.398785 30.759254 -82.017929 -4.997574 -17.001280 -39.937584 -11.867569 0.532469 4.998123 -5.001569 -10.003361 58.180660 56.414982 7.884395 91.995239 4.999275 -19.999073 43.889996 17.071238 -19.090155 -7.042210 16.382629 7.392113 100.228912 3.809700 -2.935633 39.097050 1.305469 0.013334 -6.820338 -14.514374 -8.326792 100.344315 -3.802134 2.912855 38.588898 -3.368341 0.365902 
-26.003361 24.343613 8.209207 1.001895 0.000000 -180.000000 11.773920 -0.215979 -0.547861 10.619413 0.175061 -0.617677 -10.002190 0.000000 0.000000 1.998697 0.000000 0.000000 1.335258 20.947844 -26.651123 -84.774315 -63.398785 30.759253 -82.017929 -4.997574 -17.001280 -39.937584 -11.867569 0.532469 4.998123 -5.001569 -10.003361 58.180660 56.414982 7.884395 91.995239 4.999276 -19.999073 43.889996 17.071238 -19.090157 -6.500084 16.334383 7.490077 99.440796 3.736973 -2.986126 39.097050 1.305469 0.013334 -6.293530 -14.435009 -8.364203 99.554596 -3.728406 2.963496 38.588898 -3.368341 0.365902 
-26.003361 24.187017 8.328556 1.001895 0.000000 -180.000000 11.773921 -0.215979 -0.547861 10.619413 0.175061 -0.617677 -10.800900 0.000000 0.000000 0.934885 0.000000 0.000000 1.335258 20.947844 -26.651125 -84.774315 -63.398785 30.759253 -82.017929 -4.997574 -17.001280 -39.937584 -11.867569 0.532469 4.998123 -5.001569 -10.003361 58.180660 56.414989 7.884392 91.995239 4.999276 -19.999073 43.889996 17.071238 -19.090157 -6.969906 16.376245 7.405205 100.123817 3.800042 -2.942426 39.097050 1.305469 0.013334 -6.750077 -14.503813 -8.331827 100.238983 -3.792341 2.919668 38.588898 -3.368341 0.365902 
-26.003361 24.030422 8.447905 1.001895 0.000000 -180.000000 11.773921 -0.215979 -0.547861 10.619413 0.175061 -0.617677 -11.600117 0.000000 0.000000 -0.130126 0.000000 0.000000 1.335258 20.947844 -26.651125 -84.774315 -63.398785 30.759253 -82.017929 -4.997574 -17.001280 -39.937588 -11.867570 0.532468 4.998123 -5.001569 -10.003361 58.180660 56.414989 7.884392 91.995239 4.999276 -19.999073 43.889996 17.071238 -19.090157 -7.439986 16.417442 7.319940 100.807236 3.862614 -2.897950 39.097050 1.305469 0.013334 -7.206895 -14.572371 -8.298862 100.923767 -3.855777 2.875052 38.588898 -3.368341 0.365902 
-26.003361 23.873827 8.567254 1.001895 0.000000 -180.000000 11.773921 -0.215979 -0.547861 10.619413 0.175061 -0.617677 -12.399764 0.000000 0.000000 -1.196152 0.000000 0.000000 1.335258 20.947844 -26.651123 -84.774315 -63.398785 30.759253 -82.017929 -4.997574 -17.001280 -39.937588 -11.867570 0.532468 4.998123 -5.001569 -10.003361 58.180660 56.414989 7.884392 91.995239 4.999276 -19.999073 43.889996 17.071238 -19.090157 -7.910311 16.457979 7.234294 101.491028 3.924678 -2.852709 39.097050 1.305469 0.013334 -7.663977 -14.640690 -8.265322 101.608925 -3.918702 2.829660 38.588898 -3.368341 0.365902 
